<svg xmlns="http://www.w3.org/2000/svg" width="1024" height="1024" viewBox="0 0 1024 1024">
  <defs>
    <linearGradient id="base" x1="0.15" y1="0.1" x2="0.85" y2="0.95">
      <stop offset="0" stop-color="#BDE7FF"/>
      <stop offset="0.35" stop-color="#5BA8FF"/>
      <stop offset="0.7" stop-color="#1769E8"/>
      <stop offset="1" stop-color="#0D4EC3"/>
    </linearGradient>
    <linearGradient id="left" x1="0.05" y1="0" x2="0.8" y2="1">
      <stop offset="0" stop-color="#D5EEFF" stop-opacity="0.9"/>
      <stop offset="0.45" stop-color="#61AFFF" stop-opacity="0.7"/>
      <stop offset="1" stop-color="#1265E5" stop-opacity="0.95"/>
    </linearGradient>
    <linearGradient id="right" x1="0.2" y1="0.1" x2="0.85" y2="1">
      <stop offset="0" stop-color="#E3F5FF" stop-opacity="0.82"/>
      <stop offset="0.55" stop-color="#78BEFF" stop-opacity="0.55"/>
      <stop offset="1" stop-color="#2B78EE" stop-opacity="0.88"/>
    </linearGradient>
    <linearGradient id="shine" x1="0" y1="0" x2="1" y2="1">
      <stop offset="0" stop-color="#FFFFFF" stop-opacity="0.78"/>
      <stop offset="0.35" stop-color="#FFFFFF" stop-opacity="0.2"/>
      <stop offset="1" stop-color="#FFFFFF" stop-opacity="0"/>
    </linearGradient>
    <linearGradient id="edge" x1="0" y1="0" x2="1" y2="1">
      <stop offset="0" stop-color="#A9DCFF" stop-opacity="0.9"/>
      <stop offset="0.6" stop-color="#2E8BFF" stop-opacity="0.65"/>
      <stop offset="1" stop-color="#0755D7" stop-opacity="0.9"/>
    </linearGradient>
    <filter id="softGlow" x="-30%" y="-30%" width="160%" height="160%">
      <feGaussianBlur stdDeviation="10"/>
    </filter>
    <filter id="shadow" x="-20%" y="-20%" width="140%" height="160%">
      <feDropShadow dx="0" dy="12" stdDeviation="15" flood-color="#0B5BCE" flood-opacity="0.18"/>
    </filter>
  </defs>

  <!-- soft outer glow -->
  <path d="M220 725C171 633 168 458 198 356C222 276 297 193 394 121C475 61 586 49 641 89C688 123 692 190 675 282C667 327 666 375 666 422C706 396 749 365 808 360C896 353 952 407 950 482C948 569 883 654 800 708C707 769 592 791 478 788C363 785 258 771 220 725Z" fill="#45A2FF" opacity="0.28" filter="url(#softGlow)"/>

  <!-- main fluid body -->
  <path d="M230 702C185 617 184 468 210 365C237 260 331 162 441 102C512 64 599 64 640 96C681 128 682 190 667 278C657 336 659 394 659 451C711 409 769 373 821 372C897 371 943 418 939 486C933 577 851 663 762 711C663 764 542 783 426 770C329 759 258 752 230 702Z" fill="url(#base)" stroke="url(#edge)" stroke-width="8" filter="url(#shadow)"/>

  <!-- inner vertical lobe -->
  <path d="M243 653C220 575 222 452 244 366C269 269 354 176 444 128C503 97 572 92 608 113C642 133 646 185 634 258C621 339 626 423 625 485C601 528 569 576 523 623C478 669 415 710 350 721C298 729 255 707 243 653Z" fill="url(#left)" stroke="#B9E5FF" stroke-opacity="0.55" stroke-width="3"/>

  <!-- right lobe -->
  <path d="M602 505C657 457 735 403 804 389C870 376 917 405 925 455C938 532 873 615 799 658C734 696 661 716 596 710C551 706 520 683 505 649C489 613 500 566 538 544C560 531 582 518 602 505Z" fill="url(#right)" stroke="#B9E5FF" stroke-opacity="0.48" stroke-width="3"/>

  <!-- central glass overlap -->
  <path d="M492 617C547 558 605 489 660 433L660 577C615 630 575 674 530 702C484 730 434 748 382 754C425 719 462 678 492 617Z" fill="#8DCCFF" opacity="0.32"/>

  <!-- upper glass sheen -->
  <path d="M248 358C279 268 362 181 449 133C503 103 567 97 602 113C571 125 522 146 471 181C388 239 326 317 285 403C260 454 248 517 248 575C228 510 227 420 248 358Z" fill="url(#shine)" opacity="0.72"/>

  <!-- highlight rim -->
  <path d="M243 647C227 569 228 462 250 372C275 276 354 188 446 136C500 106 563 98 600 114" fill="none" stroke="#FFFFFF" stroke-opacity="0.75" stroke-width="8" stroke-linecap="round"/>
  <path d="M607 690C680 686 755 660 817 614C875 571 912 519 918 472" fill="none" stroke="#FFFFFF" stroke-opacity="0.45" stroke-width="6" stroke-linecap="round"/>

  <!-- small specular accents -->
  <ellipse cx="463" cy="173" rx="48" ry="13" fill="#FFFFFF" opacity="0.36" transform="rotate(-28 463 173)"/>
  <ellipse cx="817" cy="438" rx="38" ry="10" fill="#FFFFFF" opacity="0.38" transform="rotate(-8 817 438)"/>
</svg>
